<mxfile host="app.diagrams.net" modified="2023-05-28T01:34:01.435Z" agent="Mozilla/5.0 (Windows NT 10.0; Win64; x64) AppleWebKit/537.36 (KHTML, like Gecko) Chrome/113.0.0.0 Safari/537.36" etag="Wo2DfwWeRpFVvXJXXDKK" version="21.3.4" type="device">
  <diagram id="C5RBs43oDa-KdzZeNtuy" name="Page-1">
    <mxGraphModel dx="875" dy="451" grid="1" gridSize="10" guides="1" tooltips="1" connect="1" arrows="1" fold="1" page="1" pageScale="1" pageWidth="827" pageHeight="1169" math="0" shadow="0">
      <root>
        <mxCell id="WIyWlLk6GJQsqaUBKTNV-0" />
        <mxCell id="WIyWlLk6GJQsqaUBKTNV-1" parent="WIyWlLk6GJQsqaUBKTNV-0" />
        <mxCell id="o6iEz9svOuSVI9pk4N0p-0" value="" style="edgeStyle=orthogonalEdgeStyle;rounded=0;orthogonalLoop=1;jettySize=auto;html=1;strokeWidth=0.5;fontFamily=宋体;" parent="WIyWlLk6GJQsqaUBKTNV-1" source="o6iEz9svOuSVI9pk4N0p-1" target="o6iEz9svOuSVI9pk4N0p-3" edge="1">
          <mxGeometry relative="1" as="geometry" />
        </mxCell>
        <mxCell id="o6iEz9svOuSVI9pk4N0p-1" value="开始" style="strokeWidth=0.5;html=1;shape=mxgraph.flowchart.terminator;whiteSpace=wrap;fontFamily=宋体;" parent="WIyWlLk6GJQsqaUBKTNV-1" vertex="1">
          <mxGeometry x="422.76" y="310" width="115" height="50" as="geometry" />
        </mxCell>
        <mxCell id="o6iEz9svOuSVI9pk4N0p-3" value="接收邮箱，新密码，再次确认新密码与邮箱验证码" style="whiteSpace=wrap;html=1;strokeWidth=0.5;fontFamily=宋体;" parent="WIyWlLk6GJQsqaUBKTNV-1" vertex="1">
          <mxGeometry x="390.51" y="400" width="179.5" height="40" as="geometry" />
        </mxCell>
        <mxCell id="o6iEz9svOuSVI9pk4N0p-8" value="" style="edgeStyle=orthogonalEdgeStyle;rounded=0;orthogonalLoop=1;jettySize=auto;html=1;exitX=0.5;exitY=1;exitDx=0;exitDy=0;strokeWidth=0.5;fontFamily=宋体;" parent="WIyWlLk6GJQsqaUBKTNV-1" source="o6iEz9svOuSVI9pk4N0p-3" target="o6iEz9svOuSVI9pk4N0p-12" edge="1">
          <mxGeometry relative="1" as="geometry">
            <mxPoint x="480.25" y="440" as="sourcePoint" />
          </mxGeometry>
        </mxCell>
        <mxCell id="o6iEz9svOuSVI9pk4N0p-28" style="edgeStyle=orthogonalEdgeStyle;rounded=0;orthogonalLoop=1;jettySize=auto;html=1;entryX=0.5;entryY=0;entryDx=0;entryDy=0;strokeWidth=0.5;fontFamily=宋体;" parent="WIyWlLk6GJQsqaUBKTNV-1" source="o6iEz9svOuSVI9pk4N0p-12" target="o6iEz9svOuSVI9pk4N0p-25" edge="1">
          <mxGeometry relative="1" as="geometry" />
        </mxCell>
        <mxCell id="o6iEz9svOuSVI9pk4N0p-12" value="邮箱验证是否成功" style="rhombus;whiteSpace=wrap;html=1;strokeWidth=0.5;fontFamily=宋体;" parent="WIyWlLk6GJQsqaUBKTNV-1" vertex="1">
          <mxGeometry x="390.5" y="480" width="179.5" height="60" as="geometry" />
        </mxCell>
        <mxCell id="o6iEz9svOuSVI9pk4N0p-20" value="" style="edgeStyle=orthogonalEdgeStyle;rounded=0;orthogonalLoop=1;jettySize=auto;html=1;entryX=0.5;entryY=0;entryDx=0;entryDy=0;exitX=0.5;exitY=1;exitDx=0;exitDy=0;strokeWidth=0.5;fontFamily=宋体;" parent="WIyWlLk6GJQsqaUBKTNV-1" source="o6iEz9svOuSVI9pk4N0p-12" target="o6iEz9svOuSVI9pk4N0p-23" edge="1">
          <mxGeometry relative="1" as="geometry">
            <mxPoint x="480.26" y="670" as="targetPoint" />
            <mxPoint x="470" y="570" as="sourcePoint" />
          </mxGeometry>
        </mxCell>
        <mxCell id="o6iEz9svOuSVI9pk4N0p-15" value="结束" style="strokeWidth=0.5;html=1;shape=mxgraph.flowchart.terminator;whiteSpace=wrap;fontFamily=宋体;" parent="WIyWlLk6GJQsqaUBKTNV-1" vertex="1">
          <mxGeometry x="420.13" y="707" width="120.25" height="42" as="geometry" />
        </mxCell>
        <mxCell id="o6iEz9svOuSVI9pk4N0p-16" value="Y" style="text;html=1;align=center;verticalAlign=middle;resizable=0;points=[];autosize=1;strokeColor=none;fillColor=none;strokeWidth=0.5;fontFamily=宋体;" parent="WIyWlLk6GJQsqaUBKTNV-1" vertex="1">
          <mxGeometry x="480" y="585" width="30" height="30" as="geometry" />
        </mxCell>
        <mxCell id="o6iEz9svOuSVI9pk4N0p-17" value="N" style="text;html=1;align=center;verticalAlign=middle;resizable=0;points=[];autosize=1;strokeColor=none;fillColor=none;strokeWidth=0.5;fontFamily=宋体;" parent="WIyWlLk6GJQsqaUBKTNV-1" vertex="1">
          <mxGeometry x="340" y="480" width="30" height="30" as="geometry" />
        </mxCell>
        <mxCell id="o6iEz9svOuSVI9pk4N0p-26" value="" style="edgeStyle=orthogonalEdgeStyle;rounded=0;orthogonalLoop=1;jettySize=auto;html=1;strokeWidth=0.5;fontFamily=宋体;" parent="WIyWlLk6GJQsqaUBKTNV-1" source="o6iEz9svOuSVI9pk4N0p-23" target="o6iEz9svOuSVI9pk4N0p-15" edge="1">
          <mxGeometry relative="1" as="geometry" />
        </mxCell>
        <mxCell id="o6iEz9svOuSVI9pk4N0p-29" style="edgeStyle=orthogonalEdgeStyle;rounded=0;orthogonalLoop=1;jettySize=auto;html=1;entryX=1;entryY=0.5;entryDx=0;entryDy=0;strokeWidth=0.5;fontFamily=宋体;" parent="WIyWlLk6GJQsqaUBKTNV-1" source="o6iEz9svOuSVI9pk4N0p-23" target="o6iEz9svOuSVI9pk4N0p-25" edge="1">
          <mxGeometry relative="1" as="geometry" />
        </mxCell>
        <mxCell id="o6iEz9svOuSVI9pk4N0p-23" value="两次新密码&lt;br&gt;是否相同" style="rhombus;whiteSpace=wrap;html=1;strokeWidth=0.5;fontFamily=宋体;" parent="WIyWlLk6GJQsqaUBKTNV-1" vertex="1">
          <mxGeometry x="390.51" y="585" width="179.5" height="72" as="geometry" />
        </mxCell>
        <mxCell id="o6iEz9svOuSVI9pk4N0p-32" style="edgeStyle=orthogonalEdgeStyle;rounded=0;orthogonalLoop=1;jettySize=auto;html=1;strokeWidth=0.5;fontFamily=宋体;" parent="WIyWlLk6GJQsqaUBKTNV-1" source="o6iEz9svOuSVI9pk4N0p-25" edge="1">
          <mxGeometry relative="1" as="geometry">
            <mxPoint x="480" y="677" as="targetPoint" />
            <Array as="points">
              <mxPoint x="280" y="677" />
            </Array>
          </mxGeometry>
        </mxCell>
        <mxCell id="o6iEz9svOuSVI9pk4N0p-25" value="返回error" style="whiteSpace=wrap;html=1;strokeWidth=0.5;fontFamily=宋体;" parent="WIyWlLk6GJQsqaUBKTNV-1" vertex="1">
          <mxGeometry x="240" y="601" width="80" height="40" as="geometry" />
        </mxCell>
        <mxCell id="o6iEz9svOuSVI9pk4N0p-27" value="Y" style="text;html=1;align=center;verticalAlign=middle;resizable=0;points=[];autosize=1;strokeColor=none;fillColor=none;strokeWidth=0.5;fontFamily=宋体;" parent="WIyWlLk6GJQsqaUBKTNV-1" vertex="1">
          <mxGeometry x="480" y="550" width="30" height="30" as="geometry" />
        </mxCell>
        <mxCell id="o6iEz9svOuSVI9pk4N0p-30" value="N" style="text;html=1;align=center;verticalAlign=middle;resizable=0;points=[];autosize=1;strokeColor=none;fillColor=none;strokeWidth=0.5;fontFamily=宋体;" parent="WIyWlLk6GJQsqaUBKTNV-1" vertex="1">
          <mxGeometry x="345" y="595" width="30" height="30" as="geometry" />
        </mxCell>
        <mxCell id="X_uXW98ssFWdv8G4JFV9-0" value="Y" style="text;html=1;align=center;verticalAlign=middle;resizable=0;points=[];autosize=1;strokeColor=none;fillColor=none;strokeWidth=0.5;fontFamily=宋体;" vertex="1" parent="WIyWlLk6GJQsqaUBKTNV-1">
          <mxGeometry x="480" y="665" width="30" height="30" as="geometry" />
        </mxCell>
      </root>
    </mxGraphModel>
  </diagram>
</mxfile>
